<mxfile host="app.diagrams.net" modified="2021-10-18T17:07:57.549Z" agent="5.0 (Windows NT 10.0; Win64; x64) AppleWebKit/537.36 (KHTML, like Gecko) Chrome/94.0.4606.81 Safari/537.36" etag="IsYQpUKIpu5Ogw8-4a07" version="15.5.5" type="github">
  <diagram id="-iwOKrTVzO40nnaOuETB" name="Page-1">
    <mxGraphModel dx="1422" dy="762" grid="1" gridSize="10" guides="1" tooltips="1" connect="1" arrows="1" fold="1" page="1" pageScale="1" pageWidth="827" pageHeight="1169" math="0" shadow="0">
      <root>
        <mxCell id="0" />
        <mxCell id="1" parent="0" />
        <mxCell id="pdW8Y9AwvGRoDVHwpuHi-4" value="" style="edgeStyle=orthogonalEdgeStyle;rounded=0;orthogonalLoop=1;jettySize=auto;html=1;" edge="1" parent="1" source="pdW8Y9AwvGRoDVHwpuHi-1" target="pdW8Y9AwvGRoDVHwpuHi-2">
          <mxGeometry relative="1" as="geometry" />
        </mxCell>
        <mxCell id="pdW8Y9AwvGRoDVHwpuHi-1" value="&lt;font style=&quot;vertical-align: inherit&quot;&gt;&lt;font style=&quot;vertical-align: inherit&quot;&gt;Start&lt;/font&gt;&lt;/font&gt;" style="ellipse;whiteSpace=wrap;html=1;" vertex="1" parent="1">
          <mxGeometry x="214" y="20" width="400" height="80" as="geometry" />
        </mxCell>
        <mxCell id="pdW8Y9AwvGRoDVHwpuHi-6" value="" style="edgeStyle=orthogonalEdgeStyle;rounded=0;orthogonalLoop=1;jettySize=auto;html=1;" edge="1" parent="1" source="pdW8Y9AwvGRoDVHwpuHi-2" target="pdW8Y9AwvGRoDVHwpuHi-5">
          <mxGeometry relative="1" as="geometry" />
        </mxCell>
        <mxCell id="pdW8Y9AwvGRoDVHwpuHi-2" value="" style="rounded=0;whiteSpace=wrap;html=1;" vertex="1" parent="1">
          <mxGeometry x="259" y="150" width="310" height="60" as="geometry" />
        </mxCell>
        <mxCell id="pdW8Y9AwvGRoDVHwpuHi-5" value="" style="whiteSpace=wrap;html=1;rounded=0;" vertex="1" parent="1">
          <mxGeometry x="264" y="290" width="300" height="60" as="geometry" />
        </mxCell>
      </root>
    </mxGraphModel>
  </diagram>
</mxfile>
